<svg xmlns="http://www.w3.org/2000/svg" width="385.93px" height="311.85px" enable-background="new 0 0 385.92627 311.85205" version="1.1" viewBox="0 0 385.92627 311.85205">
	<g>
			<path d="m196.35 13.443c53.152 0.51562 103.84 34.344 125.51 82.965 7.2227 17.947 12.671 36.524 12.097 57.681 4.1865 1.0903 10.665-0.17139 14.851 0.91797v1.2617h-13.933l-0.91797 1.2612c0 53.495-35.089 103.03-83.368 124.54-16.971 6.5371-34.737 12.734-54.633 12.161-0.18457 4.2891 0.29199 10.428 0.09766 14.617-0.0498 1.0586-0.38965 0.51367-1.3106 0.51367l-0.51465-15.131c-4.46-0.53613-10.361-0.3125-15.883-0.92285-50.803-5.6143-100.34-43.232-117.2-91.509-5.3896-13.877-7.5688-29.242-8.3144-45.182-3.6787-0.30225-8.856 9.8e-4 -13.875-0.35742v-1.7637h13.531c0.34375-52.119 29.815-101.83 77.233-125.85 19.495-9.4033 41.534-15.874 64.299-15.014 0.17383-3.7036 0.04688-7.686 0.21777-11.763h1.7646l0.33 11.57z" fill="#181716"/>
			<path d="m192.98 65.571c-16.056 0-30.732 3.8418-43.75 11.582 3.269 0.91846 4.3589 5.0464 5.6206 7.9697-0.51709 2.6953-1.7793 5.792-4.7031 7.2251-3.0947 1.4331-5.791-0.34424-8.3135-1.605-2.3506-1.6641-2.6943-4.1865-3.0967-6.5371-22.762 17.029-33.255 41.225-33.771 68.518l-25.938 0.02881-0.09131 2.523 26.03-0.0293c0.34375 32.051 20.584 62.382 49.539 75.916 11.353 5.9629 25.113 7.9697 38.129 8.6562v25.686c-43.002 1.2627-83.883-24.77-102.86-63.813-5.6191-13.131-9.7256-29.37-10.835-45.556 0.08057-6.7148 1.04-19.256 1.7764-23.822 5.4463-40.48 41.569-79.354 81.188-88.987 9.5762-2.523 19.896-3.7842 30.733-3.7842l0.34 26.022z" fill="#fff"/>
			<path d="m294.92 103.76c6.8818 15.022 10.837 31.077 10.837 48.966l-26.031-0.34375c-0.68848-29.815-14.793-56.764-40.651-73.391-12.843-8.314-27.692-12.329-43.404-13.417v-26.042c41.56 0.574 81.35 26.605 99.24 64.22z" fill="#fff"/>
			<path d="m179.96 85.867c2.0068 3.0396 0 6.1357-1.2617 8.6587-2.1787 2.5225-5.9639 2.5225-9.0029 1.7773-3.2676-2.1211-3.8408-5.3892-4.3584-8.6577-0.57129-3.956 3.6143-5.4468 6.4814-6.48 3.44 1e-3 7.11 1.263 8.14 4.702z" fill="#fff"/>
			<path d="m314.99 89.48c0.34473 3.2109-0.51465 5.9624-2.6934 8.1411-2.1787 1.7778-5.4473 2.1221-8.1426 1.2622-2.3496-1.4907-3.7842-2.9243-4.3584-5.6186-0.8584-3.7847 1.2617-6.709 4.3584-8.7153 4.35-1.605 9.05 0.573 10.83 4.931z" fill="#fff"/>
			<path d="m192.98 120.56c-4.4736 0.34424-9.1758 0.74561-13.016 3.0962 2.9238 1.9502 4.9307 5.7905 4.0117 9.1743l-1.2607 2.5801c2.5234 0.85986 4.3018 3.6118 5.2188 6.1352-0.17285 2.8662-1.4346 5.3887-3.0391 7.7978-0.91895 0.34326-1.835 0.85938-2.752 1.2607 2.0059 1.0322 4.1856 2.1216 5.2734 4.3008 0.68848-2.3511 3.4414-4.1289 5.5635-4.7022 3.209-0.68799 5.5606 0.74561 7.9121 2.1792 1.6631 2.1782 2.1777 5.4468 1.2607 8.1416-0.6875 2.6948-3.6123 3.4399-5.5606 4.3574-3.6123 0.68848-6.3086-0.74561-8.3144-3.4399-2.5234 3.0386-6.3066 5.9624-10.436 4.7017-2.5791-0.91748-4.3574-3.6123-5.1035-5.9634-1.4336-2.752 0.40137-5.1025 2.1787-7.0522 1.0898-1.4907 3.2695-0.91748 4.7012-1.6631-2.5225-1.2612-5.9619-2.5225-6.8799-5.561-0.91602-2.5801-0.51562-5.6196 1.2617-7.4541-1.4336-1.9497-4.873-3.6123-4.873-6.479-5.6191 4.5293-8.6582 12.843-9.002 20.756h-24.254c-0.74512-9.7466 2.5225-18.979 6.8809-27.292-1.8359-2.6948-2.1797-6.3071-1.2617-9.5757 2.5225-4.5288 7.7398-3.9556 11.754-3.9556 11.008-10.32 24.367-16.686 39.735-15.596v24.236z" fill="#fff"/>
			<path d="m243.38 127.61c3.0967 7.7978 6.3652 15.71 5.6191 25.113h-24.769c0.17188-11.525-5.9639-21.673-16.113-27.808-3.7822-3.6123-13.874-1.2617-13.014-8.1426l0.57227-20.469c19.89 0.92 39.04 12.679 47.7 31.309z" fill="#fff"/>
			<path d="m205.25 132.83c0.51465 3.4399-0.74609 7.4531-3.958 9.4033-2.9238 0.9165-6.3643 0.57324-8.6572-1.2046-2.1787-2.1787-2.3516-5.1025-2.1787-8.1987 1.2607-3.0396 4.6445-4.874 7.7393-5.2178 2.87 0.74 5.8 2.18 7.06 5.22z" fill="#fff"/>
			<path d="m160.47 155.25c0.68701 11.983 10.091 23.91 21.329 27.522l10.837 1.6055v24.368c-20.24 1.0898-38.874-9.7471-49.54-27.407-4.5288-7.7978-7.0522-16.456-7.2241-26.088 9.74-1.27 14.44 0.74 24.59 0z" fill="#fff"/>
			<path d="m249 155.25c-0.91602 20.642-14.105 40.709-33.427 49.138-6.1924 3.2681-13.245 4.0142-20.469 4.7017v-24.712c10.149-0.85986 19.206-7.0527 24.77-16.055 2.1777-4.0132 4.0127-8.1416 4.3574-13.073h24.77z" fill="#fff"/>
			<path d="m305.76 155.25c-0.34375 42.888-27.81 84.056-67.601 101.26-13.588 5.0459-27.293 9.5732-43.059 9.4023l-0.34473-26.089c30.388-0.86035 58.025-17.718 73.793-44.55 6.3066-12.156 10.838-25.171 11.18-40.022h26.03z" fill="#fff"/>
			<path d="m127.21 180.59c1.4316 2.3506 1.4316 4.5298 0.68701 7.2241-0.68701 2.0073-2.8667 4.7017-5.0454 4.8735-2.6948 1.2617-4.8735-0.51562-7.0522-1.7778-1.4341-2.5225-2.9233-5.6182-1.606-8.7144 1.2622-2.6953 4.1289-3.6128 6.479-4.7022 2.36 0.58 4.71 1.09 6.54 3.1z" fill="#fff"/>
			<path d="m275.28 117.54c0.34375 3.2104-0.5166 5.9624-2.6943 8.1406-2.1797 1.7788-5.4463 2.1226-8.1426 1.2622-2.3496-1.4907-3.7852-2.9238-4.3584-5.6182-0.85938-3.7847 1.2627-6.709 4.3584-8.7153 4.35-1.59 9.05 0.59 10.83 4.94z" fill="#fff"/>
			<path d="m197.69 116.08c1.4316 2.3516 1.4316 4.5293 0.6875 7.2246-0.6875 2.0064-2.8672 4.7017-5.0459 4.8735-2.6943 1.2607-4.873-0.51611-7.0527-1.7773-1.4336-2.523-2.9238-5.6196-1.6055-8.7148 1.2607-2.6958 4.1289-3.6128 6.4785-4.7022 2.35 0.58 4.7 1.1 6.54 3.1z" fill="#fff"/>
			<path d="m222.18 161.72c1.4326 2.3516 1.4326 4.5303 0.68848 7.2246-0.68848 2.0068-2.8672 4.7017-5.0449 4.8735-2.6953 1.2612-4.873-0.51611-7.0527-1.7773-1.4336-2.5225-2.9248-5.6191-1.6055-8.7148 1.2607-2.6948 4.1289-3.6128 6.4775-4.7022 2.34 0.58 4.69 1.1 6.53 3.1z" fill="#fff"/>
			<path d="m153.76 79.305c1.4331 2.3506 1.4331 4.5298 0.68799 7.2241-0.68799 2.0068-2.8667 4.7022-5.0449 4.8745-2.6963 1.2607-4.875-0.51611-7.0532-1.7783-1.4331-2.5225-2.9238-5.6186-1.6064-8.7148 1.2622-2.6953 4.1289-3.6118 6.4795-4.7022 2.34 0.573 4.69 1.089 6.53 3.096z" fill="#fff"/>
			<path d="m204.06 211.91c1.4336 2.3516 1.4336 4.5293 0.68848 7.2246-0.68848 2.0059-2.8672 4.7031-5.0469 4.874-2.6943 1.2607-4.873-0.51562-7.0527-1.7773-1.4326-2.5234-2.9238-5.6182-1.6055-8.7148 1.2607-2.6953 4.1289-3.6123 6.4805-4.7031 2.35 0.58 4.7 1.1 6.54 3.1z" fill="#fff"/>
	</g>
</svg>